<?xml version="1.0" encoding="UTF-8"?><svg id="a" xmlns="http://www.w3.org/2000/svg" viewBox="0 0 762.32 788.41"><defs><style>.b{fill:#0088ce;}.c{fill:#a5cbec;}.d{fill:#ed0677;}.e{fill:#191345;}</style></defs><polygon class="c" points="399.63 236.69 362.58 273.74 307.86 273.74 344.91 236.69 399.63 236.69"/><polygon class="c" points="483.32 475.27 467.57 475.27 574.03 368.81 589.79 368.81 483.32 475.27"/><polygon class="d" points="762.32 0 463.03 299.29 436.62 299.29 735.9 0 762.32 0"/><polygon class="e" points="240.62 0 118.54 122.08 104.68 122.08 226.76 0 240.62 0"/><polygon class="d" points="433.32 86.79 73.71 446.4 52 446.4 411.61 86.79 433.32 86.79"/><polygon class="d" points="512.44 0 437.57 74.88 427.31 74.88 502.18 0 512.44 0"/><polygon class="b" points="404.96 210.06 394.7 210.06 546.59 58.17 556.85 58.17 404.96 210.06"/><polygon class="e" points="179.85 227.73 169.59 227.73 268.36 128.96 278.62 128.96 179.85 227.73"/><polygon class="d" points="142.53 122.08 132.28 122.08 201.32 53.04 211.58 53.04 142.53 122.08"/><polygon class="e" points="311.36 313.94 229.09 396.21 220.37 396.21 302.65 313.94 311.36 313.94"/><polygon class="b" points="614.28 388.68 303.39 699.57 281.68 699.57 592.58 388.68 614.28 388.68"/><polygon class="c" points="760.57 170.25 703.08 227.74 689.32 227.74 746.8 170.25 760.57 170.25"/><polygon class="b" points="123.9 0 64.63 59.27 42.92 59.27 102.19 0 123.9 0"/><polygon class="c" points="0 283.71 93.66 190.05 103.03 190.05 0 293.08 0 283.71"/><polygon class="b" points="0 174.24 59.09 115.15 68.46 115.15 0 183.6 0 174.24"/><polygon class="d" points="430.93 443.11 373.86 500.18 320.89 500.18 377.96 443.11 430.93 443.11"/><polygon class="c" points="478.43 395.62 449.04 425 396.08 425 425.46 395.62 478.43 395.62"/><polygon class="d" points="335.72 0 247.85 87.87 226.14 87.87 314.01 0 335.72 0"/><polygon class="e" points="219.36 116.36 73.71 262.02 52 262.02 197.66 116.36 219.36 116.36"/><polygon class="d" points="0 688.77 127.89 560.88 136.5 560.88 0 697.38 0 688.77"/></svg>