<?xml version="1.0" encoding="UTF-8"?><svg id="a" xmlns="http://www.w3.org/2000/svg" viewBox="0 0 1123.89 961.21"><defs><style>.b{fill:#211b43;}.c{fill:#e5006d;}.d{fill:#007fc8;}</style></defs><polygon class="b" points="1123.89 0 816.56 307.34 910.46 307.56 1123.89 94.12 1123.89 0"/><polygon class="b" points="394.48 711.21 516.83 588.86 630.29 588.86 507.94 711.21 394.48 711.21"/><polygon class="c" points="566.25 403.67 421.92 548 413.21 548 557.53 403.67 566.25 403.67"/><polygon class="b" points="0 961.21 8.71 961.21 363.98 605.94 355.27 605.94 0 961.21"/><polygon class="b" points="1123.89 177.12 792.06 508.96 800.77 508.96 1123.89 185.83 1123.89 177.12"/><polygon class="b" points="868.56 503.85 745.35 627.06 754.07 627.06 877.28 503.85 868.56 503.85"/><polygon class="b" points="411.2 961.21 419.91 961.21 477.69 903.43 468.97 903.43 411.2 961.21"/><polygon class="c" points="263.46 961.21 1123.89 100.78 1123.89 92.06 254.75 961.21 263.46 961.21"/><polygon class="d" points="1123.89 670.23 1123.89 661.52 824.21 961.21 832.92 961.21 1123.89 670.23"/><polygon class="b" points="720.08 961.21 1123.89 557.39 1123.89 488.94 651.63 961.21 720.08 961.21"/></svg>